<svg xmlns="http://www.w3.org/2000/svg" viewBox="0 0 900 860" aria-hidden="true" focusable="false">
  <g id="layer-land">
    <path d="M 0.0 0.0 L 900.0 0.0 L 900.0 860.0 L 0.0 860.0 Z" fill="#ffffff"/>
    <g id="layer-sea">
      <path d="M 0 296 L 11 300 L 9 308 L 26 316 L 41 311 L 39 298 L 44 300 L 55 296 L 55 293 L 56 295 L 62 293 L 62 287 L 64 290 L 71 289 L 66 293 L 69 303 L 79 298 L 83 297 L 83 301 L 83 295 L 88 295 L 88 288 L 81 285 L 81 281 L 106 281 L 106 286 L 92 289 L 94 303 L 89 308 L 94 303 L 108 304 L 108 287 L 117 282 L 119 274 L 121 276 L 113 299 L 126 280 L 135 286 L 131 291 L 124 289 L 121 294 L 132 299 L 139 291 L 150 297 L 153 288 L 157 290 L 155 298 L 161 300 L 164 294 L 164 299 L 172 296 L 169 289 L 174 293 L 176 291 L 173 296 L 178 290 L 205 301 L 207 299 L 206 304 L 222 302 L 236 309 L 235 316 L 237 310 L 244 313 L 237 315 L 233 325 L 240 329 L 244 324 L 265 340 L 270 331 L 272 334 L 267 341 L 278 355 L 280 346 L 283 351 L 295 350 L 305 356 L 296 353 L 291 371 L 311 387 L 317 398 L 311 387 L 313 382 L 323 386 L 331 365 L 310 354 L 305 357 L 306 354 L 331 365 L 332 374 L 334 367 L 334 374 L 346 380 L 347 377 L 378 407 L 379 404 L 381 405 L 379 409 L 382 406 L 388 411 L 406 432 L 405 428 L 426 435 L 465 468 L 475 473 L 469 471 L 486 478 L 485 475 L 496 476 L 494 470 L 501 472 L 496 476 L 518 475 L 519 473 L 526 477 L 527 473 L 542 490 L 558 499 L 571 496 L 566 498 L 571 499 L 572 495 L 574 498 L 590 494 L 590 490 L 599 490 L 636 475 L 660 476 L 676 470 L 671 467 L 675 465 L 676 470 L 713 465 L 717 460 L 716 456 L 714 459 L 714 452 L 709 457 L 706 445 L 712 448 L 715 446 L 717 441 L 707 441 L 706 436 L 714 438 L 712 437 L 719 434 L 717 427 L 711 428 L 716 426 L 713 422 L 716 420 L 719 425 L 720 416 L 724 415 L 724 424 L 724 419 L 727 424 L 727 419 L 730 423 L 732 419 L 734 425 L 736 414 L 740 417 L 752 409 L 748 404 L 737 406 L 760 396 L 759 394 L 761 397 L 750 403 L 758 407 L 774 405 L 771 398 L 763 396 L 791 395 L 788 385 L 809 387 L 834 375 L 835 367 L 849 370 L 851 376 L 871 371 L 869 360 L 883 366 L 886 359 L 884 360 L 892 369 L 898 365 L 893 370 L 900 375 L 900 736 L 896 741 L 899 743 L 893 738 L 886 744 L 886 749 L 882 749 L 879 761 L 872 756 L 867 762 L 876 766 L 869 774 L 869 769 L 864 765 L 859 771 L 865 776 L 780 860 L 0 860 Z" fill="#dfe8e3"/>
    </g>
    <path d="M 824 462 L 822 442 L 815 443 L 818 462 L 824 462 Z" fill="#ffffff"/>
    <path d="M 769 437 L 755 441 L 753 437 L 767 432 L 763 429 L 751 433 L 750 430 L 760 425 L 754 419 L 743 421 L 743 425 L 737 426 L 733 432 L 734 452 L 751 464 L 782 463 L 775 449 L 763 453 L 760 448 L 772 443 L 769 437 Z" fill="#ffffff"/>
    <path d="M 162 313 L 166 313 L 171 299 L 161 302 L 157 313 L 162 313 Z" fill="#ffffff"/>
    <path d="M 22 430 L 22 434 L 13 438 L 14 445 L 24 461 L 29 463 L 32 456 L 39 457 L 46 449 L 46 441 L 40 436 L 36 438 L 28 427 L 22 430 Z" fill="#ffffff"/>
    <path d="M 424 733 L 421 737 L 423 744 L 439 726 L 424 733 Z" fill="#ffffff"/>
    <path d="M 867 374 L 851 378 L 852 387 L 869 388 L 869 385 L 862 384 L 867 379 L 869 384 L 867 374 Z" fill="#ffffff"/>
    <path d="M 62 301 L 61 297 L 48 300 L 52 314 L 59 314 L 53 314 L 52 311 L 63 305 L 62 301 Z" fill="#ffffff"/>
    <path d="M 813 397 L 813 400 L 805 401 L 803 399 L 790 405 L 793 426 L 833 421 L 832 412 L 820 410 L 819 406 L 831 408 L 830 400 L 813 397 Z" fill="#ffffff"/>
    <path d="M 742 492 L 764 491 L 775 488 L 777 485 L 772 476 L 746 478 L 742 492 Z" fill="#ffffff"/>
    <path d="M 338 387 L 333 384 L 326 400 L 322 399 L 341 404 L 351 386 L 335 379 L 342 384 L 341 388 L 338 387 Z" fill="#ffffff"/>
    <path d="M 848 379 L 847 373 L 837 371 L 836 389 L 848 388 L 848 379 Z" fill="#ffffff"/>
    <path d="M 127 307 L 132 300 L 126 296 L 116 309 L 127 307 Z" fill="#ffffff"/>
    <path d="M 800 386 L 792 385 L 793 395 L 808 393 L 807 387 L 800 386 Z" fill="#ffffff"/>
    <path d="M 372 402 L 354 392 L 353 395 L 360 398 L 359 401 L 351 400 L 346 407 L 369 417 L 375 408 L 378 410 L 372 402 Z" fill="#ffffff"/>
    <path d="M 897 377 L 891 377 L 897 392 L 900 389 L 897 377 Z" fill="#ffffff"/>
    <path d="M 830 390 L 829 379 L 811 387 L 812 393 L 830 390 Z" fill="#ffffff"/>
    <path d="M 884 367 L 878 366 L 872 372 L 872 381 L 887 381 L 890 371 L 884 367 Z" fill="#ffffff"/>
    <path d="M 875 741 L 881 746 L 895 732 L 897 727 L 888 712 L 888 703 L 890 715 L 875 741 Z" fill="#ffffff"/>
    <path d="M 805 756 L 798 747 L 790 747 L 768 764 L 794 738 L 782 737 L 778 731 L 732 769 L 741 780 L 738 775 L 756 761 L 761 768 L 764 765 L 753 777 L 762 789 L 805 756 Z" fill="#ffffff"/>
    <path d="M 900 493 L 893 503 L 895 509 L 900 504 Z" fill="#ffffff"/>
    <path d="M 538 860 L 418 740 L 441 718 L 460 685 L 476 673 L 491 654 L 499 637 L 499 611 L 509 602 L 505 599 L 508 601 L 522 588 L 535 565 L 532 546 L 532 549 L 530 545 L 526 547 L 509 520 L 492 526 L 479 536 L 461 567 L 433 602 L 427 606 L 430 600 L 419 606 L 409 620 L 401 624 L 402 621 L 392 630 L 380 628 L 386 626 L 380 627 L 366 645 L 369 635 L 364 649 L 359 651 L 346 674 L 334 702 L 331 701 L 333 703 L 320 716 L 316 716 L 315 712 L 312 717 L 313 714 L 308 715 L 302 712 L 298 722 L 293 725 L 285 739 L 279 740 L 269 769 L 0 769 L 0 860 Z" fill="#ffffff"/>
    <path d="M 500 472 L 495 474 L 500 472 Z" fill="#ffffff"/>
    <path d="M 338 387 L 333 384 L 326 400 L 322 399 L 341 404 L 351 386 L 335 379 L 342 384 L 341 388 L 338 387 Z" fill="#ffffff"/>
    <path d="M 531 547 L 531 547 Z" fill="#ffffff"/>
    <path d="M 536 557 L 536 557 Z" fill="#ffffff"/>
    <path d="M 372 402 L 354 392 L 353 395 L 360 398 L 359 401 L 351 400 L 346 407 L 369 417 L 375 408 L 378 410 L 372 402 Z" fill="#ffffff"/>
    <path d="M 406 433 L 406 433 Z" fill="#ffffff"/>
    <path d="M 522 476 L 522 476 Z" fill="#ffffff"/>
    <path d="M 536 500 L 536 500 Z" fill="#ffffff"/>
    <path d="M 523 520 L 523 520 Z" fill="#ffffff"/>
    <path d="M 519 591 L 522 590 L 519 591 Z" fill="#ffffff"/>
    <path d="M 537 483 L 537 483 Z" fill="#ffffff"/>
    <path d="M 537 483 L 537 483 Z" fill="#ffffff"/>
  </g>
  <g id="layer-roads">
    <path d="M 902 234 L 906 236 M 906 236 L 902 235 M 902 235 L 900 234 M 607 338 L 602 350 M 599 300 L 599 300 M 464 239 L 475 236 M 596 253 L 599 260 M 129 151 L 129 151 M 104 150 L 122 150 M 154 155 L 158 156 M 135 152 L 148 154 M 129 151 L 134 152 M 134 152 L 135 152 M 190 175 L 198 180 M 311 193 L 316 192 M 298 193 L 311 193 M 340 200 L 342 201 M 426 241 L 430 243 M 430 243 L 446 249 L 461 240 M 129 151 L 123 150 M 93 150 L 86 152 L 79 161 M 134 152 L 129 151 M 129 151 L 129 151 M 154 156 L 153 155 M 136 152 L 134 152 M 190 175 L 178 168 M 312 193 L 298 193 M 0 -14 L -3 -15 M 871 229 L 866 229 M 866 229 L 871 228 M 866 229 L 862 228 M -40 202 L -41 203 M 16 182 L 19 180 M 25 -7 L 41 -3 M 238 54 L 239 55 M 243 55 L 278 56 L 312 68 M 234 54 L 231 53 M 239 55 L 238 55 M 213 159 L 215 175 L 212 181 M 430 244 L 426 241 M 356 205 L 368 206 L 374 213 M 248 186 L 253 185 M 249 186 L 234 190 M 253 185 L 249 186 M 198 180 L 190 175 M 205 186 L 200 182 M 200 182 L 205 185 M 224 190 L 234 190 M 158 156 L 175 166 M 158 157 L 154 156 M 247 34 L 246 25 M 247 6 L 247 2 M 213 207 L 214 210 M 217 248 L 218 251 M 1 -14 L 1 -14 M 1 -14 L 2 -14 M -4 -15 L -3 -15 M -9 -16 L -9 -16 M -9 -16 L -4 -15 M -2 -15 L 1 -14 M 600 264 L 600 266 M 515 233 L 521 237 M 515 233 L 506 230 L 498 234 M 521 237 L 515 233 M 599 300 L 599 300 M 609 329 L 599 300 M 749 179 L 746 172 M 740 195 L 734 200 M 685 133 L 692 141 L 711 144 M 741 194 L 745 192 M 739 167 L 730 164 L 726 156 M 740 195 L 741 194 M 722 151 L 726 156 M 745 170 L 745 171 M 649 134 L 657 136 L 673 131 M 637 135 L 638 135 M 638 135 L 638 135 M 638 135 L 625 142 L 616 139 M 693 216 L 709 221 L 732 202 M 734 200 L 733 202 M 711 144 L 711 144 M 711 144 L 711 144 M 716 146 L 722 151 M 722 151 L 716 146 M 716 146 L 713 144 M 713 144 L 716 146 M 711 144 L 692 142 L 682 132 M 754 187 L 749 180 M 823 213 L 821 212 M 772 206 L 771 206 M 822 212 L 823 213 M 771 206 L 772 206 M 862 227 L 866 229 M 775 206 L 776 206 M 776 207 L 775 206 M 873 228 L 871 229 M 872 228 L 876 228 M 880 229 L 875 228 M 855 225 L 859 226 M 859 226 L 855 225 M 882 229 L 883 230 M 821 212 L 806 210 M 771 206 L 766 204 M 775 206 L 772 206 M 859 226 L 862 227 M 862 228 L 859 226 M 823 213 L 855 225 M 855 225 L 823 213 M 772 206 L 775 206 M 776 206 L 794 207 M 340 200 L 334 193 M 334 193 L 340 200 M 283 191 L 292 191 M 348 203 L 345 202 M 326 188 L 326 188 M 345 202 L 348 202 M 284 191 L 282 192 M 326 188 L 325 188 M 316 192 L 316 191 M 342 201 L 344 202 M 322 189 L 322 189 M 316 192 L 316 192 M 344 202 L 342 201 M 411 231 L 408 230 M 409 230 L 411 231 M 375 214 L 374 213 M 374 213 L 375 214 M 322 189 L 322 189 M 375 214 L 390 226 L 409 230 M 408 230 L 389 226 L 375 214 M 282 192 L 263 184 M 374 213 L 367 206 L 356 206 M 345 202 L 344 202 M 344 202 L 345 202 M 342 201 L 340 200 M 348 202 L 352 204 M 356 206 L 352 204 M 352 204 L 356 205 M 352 204 L 348 203 M 411 231 L 420 236 M 325 188 L 322 189 M 322 189 L 326 188 M 316 192 L 312 193 M 322 189 L 316 192 M 316 191 L 322 189 M 326 188 L 334 193 M 599 295 L 600 286 M 600 286 L 599 295 M 599 296 L 599 300 M 599 300 L 599 296 M 600 285 L 600 281 M 599 296 L 599 295 M 599 295 L 599 296 M 739 167 L 740 167 M 749 180 L 749 179 M 740 167 L 739 167 M 726 156 L 726 156 M 766 204 L 766 204 M 755 189 L 754 187 M 745 171 L 746 171 M 766 204 L 766 204 M 749 179 L 750 180 M 726 156 L 726 155 M 763 201 L 761 199 M 762 199 L 763 201 M 754 187 L 755 188 M 761 199 L 760 198 M 755 188 L 756 190 M 726 156 L 730 164 L 739 167 M 750 180 L 752 184 M 765 203 L 763 201 M 763 201 L 766 204 M 740 167 L 745 170 M 746 171 L 749 179 M 766 204 L 771 206 M 619 231 L 622 230 M 741 194 L 740 195 M 636 231 L 634 230 M 634 230 L 636 230 M 622 230 L 618 231 M 689 215 L 693 216 M 693 216 L 689 215 M 658 230 L 657 230 M 657 230 L 658 230 M 649 228 L 653 229 M 653 229 L 649 228 M 584 253 L 576 260 L 567 261 M 689 215 L 680 216 L 668 228 L 658 230 M 658 230 L 667 228 L 680 216 L 689 215 M 653 229 L 657 230 M 657 230 L 653 229 M 636 230 L 649 228 M 649 228 L 636 231 M 622 230 L 634 230 M 634 230 L 622 230 M 247 34 L 247 40 M 246 51 L 240 58 M 599 260 L 594 250 M 602 350 L 607 338 M 599 261 L 599 260 M 599 260 L 600 261 M 600 261 L 600 264 M 559 258 L 538 250 M 561 259 L 559 258 M 559 258 L 561 259 M 567 261 L 576 260 L 584 253 M 1 -14 L 0 -14 M -4 -15 L -9 -16 M -3 -15 L -4 -15 M 79 161 L 85 153 L 93 150 M 79 161 L 79 161 M 78 162 L 78 162 M 78 163 L 70 166 M 886 232 L 883 231 M 883 230 L 887 232 M 883 231 L 881 230 M 236 76 L 236 78 M 236 78 L 236 76 M 334 75 L 334 75 M 334 75 L 342 71 L 350 73 M 312 68 L 278 56 L 242 55 M 334 76 L 334 76 M 350 73 L 342 71 L 334 76 M 350 74 L 350 73 M 378 74 L 367 67 L 356 74 M 378 74 L 378 74 M 516 95 L 516 95 M 350 73 L 350 74 M 919 248 L 921 249 M 538 249 L 559 258 M 531 243 L 538 249 M 538 250 L 531 243 M 531 243 L 521 237 M 246 51 L 237 64 M 927 251 L 942 245 M 926 251 L 925 251 M 919 248 L 915 244 M 927 251 L 926 251 M 921 249 L 922 250 M 925 251 L 926 251 M 926 251 L 927 251 M 909 239 L 906 236 M 922 250 L 921 250 M 921 250 L 919 248 M 909 238 L 915 244 M 925 251 L 922 250 M 922 250 L 925 251 M 760 198 L 757 191 M -9 -16 L -17 -18 M -9 -16 L -9 -16 M 4 -13 L 2 -14 M 2 -14 L 1 -14 M 55 3 L 55 4 M 163 36 L 179 42 M 95 15 L 74 9 M 42 -3 L 24 -7 M 74 9 L 73 9 M 96 15 L 133 25 L 145 33 M 95 15 L 96 15 M 58 5 L 73 9 M 74 9 L 95 15 M 145 33 L 131 25 L 96 16 M 96 16 L 95 15 M 73 9 L 58 5 M 55 4 L 55 3 M 73 9 L 74 9 M -18 -18 L -17 -18 M -17 -18 L -9 -16 M -17 -18 L -18 -18 M 615 138 L 587 123 L 579 114 M 616 139 L 615 138 M 615 138 L 616 139 M 218 49 L 201 49 L 180 43 M 180 42 L 202 49 L 218 49 M 52 0 L 43 -2 M 42 -3 L 52 0 M 52 0 L 55 3 M 55 3 L 52 1 M 2 -14 L 4 -13 M 24 -7 L 25 -7 M 24 -7 L 23 -8 M 23 -8 L 4 -13 M 216 146 L 212 156 M 180 43 L 179 42 M 179 42 L 180 42 M 179 42 L 164 36 M 263 184 L 258 184 M 258 184 L 263 184 M 256 184 L 254 185 M 254 185 L 256 184 M 297 193 L 292 191 M 292 191 L 297 193 M 212 159 L 212 156 M 205 185 L 207 186 M 234 190 L 248 186 M 234 190 L 224 190 M 224 190 L 212 188 M 212 206 L 207 196 M 207 196 L 211 202 M 209 183 L 215 175 L 212 159 M 208 187 L 207 187 M 200 182 L 198 180 M 178 168 L 175 166 M 175 166 L 158 157 M 207 187 L 207 187 M 207 186 L 207 187 M 207 187 L 209 187 M 212 188 L 208 187 M 178 168 L 190 175 M 198 180 L 200 182 M 207 187 L 205 186 M 209 187 L 212 188 M 212 188 L 224 190 M 43 -2 L 42 -3 M 41 -3 L 42 -3 M 242 55 L 243 55 M 242 55 L 242 55 M 242 55 L 239 55 M 239 55 L 242 55 M 465 79 L 466 79 M 466 79 L 465 79 M 463 80 L 461 80 M 378 74 L 378 74 M 254 185 L 253 185 M 256 184 L 258 184 M 253 185 L 254 185 M 258 184 L 256 184 M 150 35 L 152 34 M 152 35 L 150 35 M 234 54 L 234 54 M 234 53 L 234 54 M 234 54 L 238 54 M 238 55 L 234 54 M 282 192 L 283 191 M 247 6 L 247 6 M 246 25 L 246 24 M 247 40 L 247 41 M 175 166 L 178 168 M -40 202 L -37 199 M -13 187 L -18 189 M 217 248 L 222 237 L 213 217 M 516 95 L 516 95 M 516 95 L 501 94 L 489 85 M 466 79 L 488 83 M 104 150 L 102 150 M 93 150 L 102 150 M 610 328 L 609 336 M 607 338 L 608 336 M 609 336 L 607 338 M 608 336 L 609 329 M -14 187 L 2 187 L 16 182 M 18 181 L 16 182 M 475 236 L 464 239 M 62 165 L 64 165 M 62 165 L 59 166 M 59 166 L 62 165 M 59 166 L 59 166 M 148 154 L 148 154 M 148 154 L 148 154 M 148 154 L 136 152 M 148 154 L 154 155 M 153 155 L 152 155 M 152 155 L 148 154 M 58 166 L 55 168 M 58 166 L 59 166 M 55 168 L 54 169 M 55 168 L 58 166 M 41 171 L 37 172 M 41 171 L 52 169 M 37 172 L 35 173 M 37 172 L 41 171 M 25 178 L 20 180 M 24 177 L 27 176 M 20 180 L 24 177 M 20 180 L 18 181 M 649 134 L 646 133 M 646 133 L 642 134 M 646 133 L 649 134 M 638 135 L 646 133 M 297 193 L 298 193 M 876 228 L 877 228 M 875 228 L 873 228 M 877 228 L 882 229 M 599 300 L 610 328 M 761 198 L 762 199 M -3 -15 L -2 -15 M 246 23 L 247 10 M 246 24 L 246 23 M 247 10 L 247 9 M 213 217 L 213 216 M 213 217 L 222 237 L 217 248 M 214 213 L 213 217 M 213 213 L 213 212 M 213 212 L 213 207 M 214 212 L 214 213 M 227 119 L 230 105 M 230 105 L 227 118 M 237 64 L 237 63 M 237 64 L 236 76 M 237 66 L 236 71 M 237 64 L 237 64 M 237 64 L 237 64 M 238 61 L 246 51 M 248 46 L 247 44 M 248 44 L 248 47 M 247 9 L 247 6 M 247 2 L 247 2 M 244 -9 L 244 -21 M 241 -25 L 237 -34 L 243 -40 L 243 -47 M 242 -24 L 241 -25 M 600 278 L 600 266 M 600 281 L 600 285 M 521 237 L 531 243 M 227 51 L 231 53 M 231 53 L 227 52 M 227 52 L 226 51 M 218 253 L 217 248 M 745 192 L 741 194 M 35 173 L 32 174 M 34 173 L 37 172 M 32 174 L 29 175 M 31 174 L 34 173 M 212 156 L 216 145 M 212 156 L 213 159 M 226 51 L 224 50 M 226 51 L 227 51 M 224 50 L 226 51 M 475 236 L 478 236 M 478 236 L 496 235 M 478 236 L 475 236 M 579 114 L 578 113 M 578 113 L 570 107 L 557 108 L 547 102 L 516 95 M 579 113 L 579 114 M 488 83 L 489 84 M 487 83 L 466 79 M 489 85 L 487 83 M 442 81 L 445 82 M 445 82 L 442 82 M 439 81 L 419 74 L 396 82 L 378 74 M 757 191 L 756 190 M 757 191 L 761 198 M 756 190 L 755 189 M 756 190 L 757 191 M 600 266 L 600 277 M 600 264 L 599 261 M 600 266 L 600 264 M 600 281 L 600 280 M 600 280 L 600 278 M 420 236 L 423 238 M 423 238 L 420 237 M 420 237 L 411 231 M 423 238 L 426 241 M 16 182 L 2 188 L -13 187 M -37 199 L -33 196 M -33 196 L -24 193 M -37 199 L -40 202 M -33 196 L -37 199 M -24 193 L -18 188 M -24 193 L -33 196 M -18 189 L -24 193 M -18 188 L -14 187 M 28 176 L 25 178 M 27 176 L 28 175 M 29 175 L 28 176 M 28 175 L 31 174 M 52 170 L 41 171 M 52 169 L 54 168 M 54 168 L 55 168 M 54 169 L 52 170 M 59 166 L 58 166 M 64 165 L 70 165 M 64 165 L 62 165 M 70 165 L 78 162 M 69 166 L 64 165 M 78 162 L 78 163 M 78 162 L 79 161 M 79 161 L 78 162 M 79 161 L 79 161 M 102 150 L 93 150 M 102 150 L 104 150 M 123 150 L 129 151 M 122 150 L 123 150 M 122 150 L 104 150 M 123 150 L 122 150 M 190 175 L 190 175 M 263 184 L 282 192 M 292 191 L 284 191 M 461 240 L 445 250 L 430 244 M 461 240 L 461 240 M 461 240 L 463 239 M 461 240 L 461 240 M 463 239 L 464 239 M 464 239 L 463 239 M 463 239 L 461 240 M 496 235 L 498 233 M 496 235 L 478 236 M 498 234 L 496 235 M 498 233 L 506 230 L 515 233 M 733 202 L 732 202 M 732 201 L 740 195 M 732 202 L 709 222 L 693 216 M 732 202 L 732 201 M 463 80 L 465 79 M 461 80 L 460 80 M 460 80 L 445 82 M 461 80 L 461 80 M 757 190 L 753 191 M 942 246 L 927 251 M 679 131 L 657 136 L 649 134 M 673 131 L 682 131 M 716 146 L 716 146 M 716 146 L 716 146 M 745 171 L 740 167 M 746 172 L 745 171 M 794 207 L 797 208 M 794 208 L 776 207 M 797 208 L 822 212 M 797 209 L 794 208 M 881 230 L 880 229 M 901 234 L 902 234 M 900 234 L 891 233 M 915 244 L 919 248 M 915 244 L 909 239 M 906 236 L 909 238 M 891 233 L 901 234 M 871 228 L 872 228 M 298 193 L 297 193 M 334 193 L 326 188 M 4 -13 L 24 -7 M 231 53 L 234 53 M 356 74 L 367 67 L 378 74 M 378 74 L 396 82 L 419 74 L 439 81 M 445 82 L 461 80 M 489 84 L 501 93 L 516 95 M 516 95 L 547 101 L 557 108 L 570 107 L 579 113 M 579 114 L 587 123 L 615 138 M 616 139 L 625 142 L 637 135 M 426 241 L 423 238 M 19 180 L 20 180 M 753 191 L 746 192 M 745 192 L 746 191 M 753 191 L 757 190 M 746 192 L 745 192 M 746 191 L 753 191 M 58 5 L 58 5 M 55 4 L 58 5 M 58 5 L 55 4 M 58 5 L 58 5 M 682 131 L 685 133 M 248 44 L 248 47 M 236 75 L 237 66 M -28 -26 L -28 -26 M -19 -19 L -28 -26 M -28 -26 L -19 -19 M -28 -27 L -28 -26 M 600 285 L 600 286 M 600 286 L 600 285 M 600 277 L 600 281 M 600 281 L 600 281 M 561 259 L 563 259 M 890 233 L 886 232 M 891 233 L 890 233 M 887 232 L 890 233 M 890 233 L 891 233 M -37 -33 L -28 -27 M -34 -30 L -40 -35 M 439 81 L 442 81 M 439 81 L 439 81 M 442 82 L 439 81 M 439 81 L 439 81 M 883 230 L 883 230 M 883 231 L 883 231 M 70 166 L 69 166 M 237 64 L 237 66 M 237 66 L 237 64 M 356 74 L 350 74 M 356 74 L 356 74 M 350 74 L 356 74 M 356 74 L 356 74 M 602 351 L 602 354 M 602 350 L 602 351 M 602 350 L 602 350 M -19 -19 L -18 -18 M -18 -18 L -19 -19 M -17 -18 L -17 -18 M -17 -18 L -17 -18 M 52 0 L 52 0 M 52 1 L 52 0 M 145 33 L 146 33 M 146 33 L 145 33 M 146 33 L 147 34 M 147 34 L 146 33 M 147 34 L 148 34 M 148 34 L 147 34 M 148 34 L 150 35 M 150 35 L 148 34 M 224 50 L 221 50 M 221 50 L 224 50 M 218 49 L 219 49 M 219 49 L 218 49 M 219 49 L 221 50 M 221 50 L 219 49 M 221 50 L 221 50 M 221 50 L 221 50 M 315 69 L 334 75 M 334 76 L 315 69 M 312 68 L 313 68 M 313 68 L 312 68 M 313 68 L 314 68 M 314 68 L 313 68 M 314 68 L 314 68 M 314 69 L 314 68 M 315 69 L 314 69 M 315 69 L 315 69 M 314 68 L 315 69 M 315 69 L 315 69 M 722 151 L 722 151 M 726 155 L 722 151 M 722 151 L 722 151 M 244 -1 L 241 -4 L 243 -8 M 243 -8 L 244 -9 M 246 0 L 244 -1 M 244 -1 L 244 -1 M 247 2 L 246 0 M 246 0 L 246 0 M 247 41 L 248 43 M 248 43 L 248 44 M 248 47 L 248 47 M 247 47 L 248 46 M 248 47 L 248 47 M 248 47 L 247 50 M 247 50 L 247 48 M 248 47 L 247 50 M 246 51 L 247 50 M 247 50 L 246 51 M 247 50 L 246 51 M 236 78 L 235 83 M 235 83 L 235 83 M 235 83 L 235 79 M 235 83 L 235 83 M 232 95 L 235 83 M 232 95 L 232 95 M 235 83 L 233 95 M 233 95 L 233 95 M 233 95 L 230 105 M 230 105 L 230 105 M 230 105 L 232 95 M 230 105 L 230 105 M 227 119 L 227 121 M 227 118 L 227 119 M 227 121 L 227 119 M 227 119 L 227 119 M 227 121 L 226 122 M 226 122 L 227 121 M 226 122 L 222 131 M 222 131 L 222 132 M 222 131 L 226 122 M 222 132 L 222 131 M 222 132 L 218 141 M 218 141 L 218 141 M 218 141 L 222 132 M 218 141 L 218 141 M 218 141 L 216 145 M 216 145 L 216 146 M 216 145 L 218 141 M 216 145 L 216 145 M 206 189 L 206 188 M 206 188 L 206 189 M 206 189 L 207 196 M 207 196 L 206 189 M 713 144 L 711 144 M 711 144 L 713 144 M 642 134 L 638 135 M 637 135 L 637 135 M 236 71 L 236 75 M 247 48 L 247 47 M 214 210 L 214 212 M 212 205 L 213 207 M 211 202 L 212 205 M 213 207 L 212 206 M 213 216 L 213 213 M 218 251 L 218 253 M 595 252 L 596 253 M 594 250 L 593 249 M 235 79 L 236 78 M 602 351 L 602 350 M 602 355 L 602 351 M 465 79 L 463 80 M 463 80 L 463 80 M 461 80 L 463 80 M 463 80 L 463 80 M 618 231 L 597 236 M 586 250 L 601 234 L 619 231 M 567 261 L 561 259 M 567 261 L 567 261 M 567 261 L 567 261 M 563 259 L 567 261 M 243 -21 L 242 -24 M 244 -21 L 243 -21 M 213 207 L 213 207 M 766 204 L 765 203 M 752 184 L 754 187 M 597 236 L 584 253 M 584 253 L 586 250 M 212 181 L 206 188 M 206 188 L 209 183 M 806 210 L 797 209 M 682 132 L 679 131 M 247 44 L 247 44 M 248 44 L 248 44 M 240 58 L 238 61 M 238 61 L 237 64 M 238 61 L 238 61 M 237 63 L 238 61 M 238 61 L 238 61 M 158 35 L 152 35 M 164 36 L 158 35 M 152 34 L 155 34 M 155 34 L 163 36 M -28 -26 L -34 -30 M -45 -37 L -40 -35 M -40 -35 L -37 -33" fill="none" stroke="#c9d2cc" stroke-width="1.0" stroke-opacity="1.0" stroke-linecap="round" stroke-linejoin="round"/>
  </g>
  <g id="layer-rail">
    <path d="M 341 316 L 359 332 M 690 440 L 693 439 M 207 235 L 196 228 M 217 242 L 229 251 M 461 442 L 456 437 M 543 486 L 548 490 M 479 457 L 496 465 M 323 300 L 326 303 M 390 386 L 400 399 M 707 426 L 707 424 M 703 455 L 694 450 M 463 443 L 474 453 M 235 256 L 246 267 M 663 458 L 669 455 M 381 366 L 382 369 M 246 267 L 248 268 M 359 332 L 359 333 M 209 236 L 207 235 M 688 442 L 687 443 M 566 493 L 567 493 M 440 422 L 444 426 M 496 465 L 479 457 M 97 244 L 106 240 M 657 463 L 660 461 M 599 487 L 600 487 M 536 478 L 542 485 M 36 238 L 10 233 M 141 225 L 147 222 M 512 468 L 526 473 M 600 487 L 616 483 L 630 476 M 402 402 L 436 418 M 107 240 L 97 244 M 693 439 L 705 429 M 572 493 L 597 488 M 39 239 L 38 239 M 461 443 L 461 442 M 565 493 L 566 493 M 631 475 L 634 475 M 400 399 L 402 402 M 293 279 L 297 280 M 359 333 L 378 360 M 676 450 L 690 440 M 229 251 L 230 252 M 317 293 L 323 300 M 264 269 L 280 273 M 234 -0 L 230 -46 M 196 168 L 197 167 M 209 108 L 206 123 M 197 167 L 202 157 M 200 143 L 201 141 M 182 181 L 190 176 M 234 -0 L 237 4 M 218 81 L 216 57 L 224 41 M 181 182 L 182 181 M 210 104 L 211 96 M 175 210 L 175 192 L 181 182 M 175 212 L 175 210 M 228 36 L 238 16 L 237 4 M 209 108 L 210 104 M 647 470 L 654 465 M 636 474 L 646 470 M 564 493 L 565 493 M 548 491 L 564 493 M 571 493 L 572 493 M 567 493 L 571 493 M 548 490 L 548 491 M 474 453 L 478 456 M 694 450 L 694 450 M 694 450 L 687 443 M 169 220 L 175 212 M 163 223 L 175 224 M 164 223 L 168 221 M 224 41 L 228 36 M 10 232 L 36 238 M 106 240 L 121 233 M 42 240 L 42 240 M 49 242 L 57 243 M 97 244 L 94 244 M 72 245 L 57 243 M 49 242 L 45 241 M 49 242 L 49 242 M 49 242 L 49 242 M 154 221 L 147 223 M 158 222 L 162 222 M 162 223 L 154 221 M 175 225 L 163 223 M 175 224 L 183 225 M 183 225 L 175 225 M 184 226 L 183 225 M 191 227 L 184 226 M 672 453 L 672 452 M 669 454 L 671 453 M 669 455 L 669 454 M 660 461 L 663 458 M 663 458 L 663 458 M 328 305 L 341 316 M 672 452 L 676 450 M 147 222 L 155 221 M 190 176 L 196 168 M 192 227 L 191 227 M 192 227 L 192 227 M 309 286 L 314 290 M 218 81 L 215 85 M 646 470 L 616 483 L 599 487 M 543 485 L 543 486 M 542 485 L 542 485 M 542 485 L 543 485 M 599 487 L 616 483 L 646 470 M 630 475 L 616 484 L 600 487 M 676 450 L 672 452 M 676 450 L 672 452 M 565 493 L 571 493 M 669 454 L 663 458 M 473 452 L 478 456 M 669 455 L 663 458 M 687 443 L 676 450 M 691 440 L 689 442 M 549 491 L 564 493 M 564 493 L 549 491 M 654 465 L 647 470 M 564 493 L 548 491 M 654 464 L 663 458 M 478 456 L 463 444 M 663 458 L 654 465 M 458 438 L 457 438 M 542 485 L 542 485 M 676 450 L 676 450 M 646 470 L 647 469 M 663 458 L 663 458 M 565 493 L 564 493 M 669 454 L 669 454 M 672 453 L 671 453 M 548 490 L 549 491 M 543 485 L 542 485 M 572 493 L 571 493 M 671 453 L 671 453 M 542 485 L 542 485 M 676 450 L 676 450 M 647 470 L 646 470 M 543 486 L 543 485 M 671 453 L 671 452 M 663 458 L 663 458 M 572 493 L 571 493 M 676 450 L 676 450 M 669 454 L 669 455 M 548 491 L 548 491 M 646 470 L 647 470 M 672 452 L 671 453 M 571 493 L 572 493 M 564 493 L 565 493 M 542 485 L 542 485 M 676 450 L 676 450 M 669 454 L 669 454 M 672 452 L 672 453 M 676 450 L 676 450 M 663 458 L 663 458 M 671 453 L 672 453 M 549 491 L 548 490 M 565 493 L 564 493 M 669 454 L 669 454 M 671 453 L 671 453 M 647 470 L 647 470 M 496 465 L 479 457 M 535 478 L 511 468 M 463 443 L 473 452 M 479 456 L 496 465 M 542 485 L 536 478 M 672 452 L 672 453 M 687 443 L 687 443 M 512 468 L 535 478 M 676 450 L 704 431 M 669 454 L 671 453 M 707 426 L 676 450 M 669 454 L 665 457 M 672 453 L 669 454 M 707 426 L 676 450 M 671 453 L 669 454 M 671 452 L 676 450 M 548 490 L 542 485 M 671 453 L 669 454 M 663 458 L 668 455 M 571 493 L 565 493 M 636 474 L 630 475 M 478 456 L 473 452 M 548 491 L 543 486 M 542 485 L 548 490 M 676 450 L 672 452 M 571 493 L 565 493 M 90 244 L 76 245 M 76 245 L 76 245 M 216 241 L 210 237 M 216 241 L 217 242 M 687 443 L 688 442 M 526 473 L 535 478 M 535 478 L 536 478 M 536 478 L 535 478 M 542 485 L 536 478 M -7 226 L -19 222 M -19 222 L -23 222 M 10 233 L 8 232 M 57 243 L 57 243 M 57 243 L 49 242 M 131 229 L 132 229 M 132 229 L 136 227 M -26 223 L -26 223 M -23 222 L -26 223 M 210 237 L 209 236 M 210 237 L 210 237 M 288 276 L 293 279 M 8 232 L 6 232 M 280 273 L 281 273 M 378 360 L 378 360 M 378 360 L 381 366 M -7 226 L -7 226 M 1 231 L -7 226 M 1 231 L 1 231 M 6 232 L 1 231 M 233 255 L 233 255 M 233 255 L 235 256 M 230 252 L 233 255 M 121 233 L 122 233 M 122 233 L 131 229 M 653 465 L 654 464 M 647 469 L 653 465 M 654 465 L 654 465 M 654 465 L 654 465 M 654 465 L 654 465 M 663 458 L 654 465 M 654 465 L 657 463 M 654 465 L 647 470 M 202 157 L 202 156 M 202 156 L 200 143 M -35 224 L -48 229 M -35 224 L -35 224 M -26 223 L -35 224 M 218 243 L 216 242 M 216 242 L 216 241 M 210 237 L 216 241 M 210 237 L 210 237 M 196 228 L 194 227 M 196 228 L 196 228 M 196 227 L 196 228 M 194 227 L 196 227 M 194 227 L 192 227 M 194 227 L 194 227 M 191 227 L 192 227 M 192 227 L 192 227 M 192 227 L 194 227 M 194 227 L 194 227 M 196 228 L 210 237 M 183 225 L 191 227 M 707 424 L 707 426 M 707 424 L 707 426 M 706 426 L 707 424 M 705 429 L 706 427 M 704 431 L 705 429 M 705 429 L 706 426 M 688 442 L 688 442 M 668 455 L 669 454 M 382 369 L 390 385 M 390 385 L 390 386 M 444 426 L 445 426 M 445 426 L 455 436 M 211 96 L 212 95 M 212 95 L 215 85 M 206 124 L 204 132 M 204 132 L 201 141 M 204 132 L 204 132 M 206 123 L 206 123 M 206 123 L 206 124 M 287 276 L 288 276 M 281 273 L 287 276 M 264 269 L 264 269 M 248 268 L 264 269 M 536 478 L 535 478 M 536 478 L 542 485 M 535 478 L 536 478 M 535 478 L 512 468 M 341 316 L 328 306 M 326 304 L 325 303 M 322 299 L 317 293 M 377 360 L 359 333 M 359 333 L 358 332 M 358 332 L 341 316 M 455 436 L 445 426 M 445 426 L 444 426 M 444 426 L 437 420 M 437 420 L 401 402 M 401 402 L 400 399 M 400 399 L 390 386 M 390 386 L 390 385 M 390 385 L 382 369 M 382 369 L 381 366 M 381 366 L 378 360 M 378 360 L 377 360 M 229 251 L 218 243 M 230 252 L 229 251 M 233 255 L 230 252 M 233 255 L 233 255 M 235 256 L 233 255 M 246 267 L 235 256 M 248 268 L 246 267 M 263 269 L 248 268 M 264 269 L 263 269 M 280 273 L 264 269 M 281 273 L 280 273 M 287 276 L 281 273 M 288 276 L 287 276 M 293 279 L 288 276 M 297 280 L 293 279 M 314 290 L 309 286 M 436 418 L 440 422 M 456 437 L 455 436 M 599 487 L 572 493 M 599 487 L 599 487 M 599 487 L 599 487 M 597 488 L 572 493 M 597 488 L 597 488 M 572 493 L 598 487 M 598 487 L 599 487 M 155 221 L 158 222 M 600 487 L 599 487 M 647 470 L 636 474 M 163 223 L 162 223 M 94 244 L 97 244 M 76 245 L 90 244 M 76 245 L 76 245 M 57 243 L 76 245 M 57 243 L 57 243 M 121 233 L 107 240 M 122 233 L 121 233 M 131 229 L 122 233 M 132 229 L 131 229 M 136 227 L 132 229 M 147 223 L 141 225 M -48 229 L -35 224 M -35 224 L -35 224 M -26 223 L -26 223 M -35 224 L -26 223 M -26 223 L -23 222 M -23 222 L -19 222 M -7 226 L -7 226 M -19 222 L -7 226 M -7 226 L 1 231 M 1 231 L 1 231 M 6 232 L 8 232 M 1 231 L 6 232 M 8 232 L 10 232 M 706 427 L 707 426 M 161 222 L 164 223 M 162 222 L 163 223 M 162 222 L 162 222 M 455 436 L 456 436 M 500 466 L 496 465 M 496 465 L 500 466 M 500 466 L 498 465 M 496 465 L 500 466 M 500 466 L 512 468 M 511 468 L 500 466 M 500 466 L 512 468 M 512 468 L 500 466 M 237 4 L 234 -0 M 215 85 L 218 81 M 228 36 L 224 41 M 209 108 L 210 104 M 599 487 L 597 488 M 599 487 L 599 487 M 688 442 L 688 442 M 692 440 L 688 442 M 37 238 L 49 242 M 36 238 L 37 238 M 38 239 L 37 238 M 37 238 L 36 238 M 237 4 L 237 4 M 237 4 L 237 4 M 235 1 L 234 -0 M 168 221 L 168 221 M 168 221 L 169 220 M 317 293 L 314 290 M 314 290 L 317 293 M 297 280 L 309 286 M 309 286 L 297 280 M 457 438 L 456 437 M 473 452 L 463 443 M 463 444 L 463 444 M 458 438 L 462 442 M 463 443 L 463 443 M 462 442 L 458 438 M 463 443 L 463 443 M 456 436 L 463 443 M 463 443 L 463 443 M 634 475 L 636 474 M 630 476 L 631 475 M 325 302 L 322 299 M 325 303 L 325 302 M 328 306 L 326 304 M 326 303 L 328 305 M 462 442 L 463 443 M 463 444 L 461 443 M 479 457 L 478 456 M 478 456 L 479 457 M 479 457 L 478 456 M 478 456 L 479 456 M 202 231 L 203 231 M 201 145 L 201 140 M 180 183 L 183 181 M 158 221 L 161 222 M 44 241 L 39 239 M 45 241 L 44 241 M 76 245 L 72 245 M 463 443 L 462 442 M 498 465 L 496 465 M 597 488 L 599 487 M 597 488 L 597 488 M 137 227 L 141 225 M 141 225 L 137 227 M 136 227 L 137 227 M 137 227 L 136 227 M 94 244 L 90 244 M 90 244 L 94 244" fill="none" stroke="#b8c2bb" stroke-width="1.0" stroke-opacity="1.0" stroke-dasharray="4 3" stroke-linecap="round" stroke-linejoin="round"/>
  </g>
  <g id="layer-route">
    <path class="layer-route" pathLength="100" d="M 758.1 487.9 L 754.4 480.8 L 768.3 479.3 L 767.2 471.8 L 745.1 426.9 L 739.8 429.4 L 737.4 428.2 L 733.8 423.0 L 732.0 416.3 L 729.5 415.6 L 724.5 403.6 L 725.5 402.3 L 737.7 391.1 L 746.9 387.7 L 750.9 383.0 L 765.5 375.5 L 764.1 370.7 L 767.7 366.8 L 766.7 347.4 L 768.5 345.0 L 766.6 345.3 L 763.4 338.8 L 762.6 340.0 L 765.5 337.9 L 763.8 335.6 L 764.5 333.4 L 761.0 335.2 L 756.3 329.5 L 748.4 301.2 L 742.9 298.0 L 741.3 289.8 L 747.0 282.1 L 751.9 279.3 L 753.5 274.8 L 758.8 270.8 L 764.4 262.4 L 765.6 262.8 L 764.8 264.2 L 764.4 263.0 L 770.1 259.9 L 778.0 261.2 L 781.1 259.3 L 783.9 260.3 L 784.5 262.4 L 783.5 258.4 L 785.0 254.9 L 780.8 253.3 L 779.0 250.7 L 772.7 250.2 L 765.5 247.0 L 755.1 244.9 L 752.4 246.2 L 741.8 242.3 L 726.9 243.3 L 723.7 241.6 L 718.8 234.7 L 708.9 237.7 L 696.7 228.5 L 687.2 227.1 L 672.2 230.2 L 666.6 234.9 L 657.0 239.0 L 654.5 237.7 L 652.7 233.1 L 649.1 232.1 L 641.1 234.2 L 637.8 233.7 L 631.3 236.2 L 627.8 235.6 L 621.5 239.1 L 612.9 239.5 L 602.6 248.9 L 599.8 260.4 L 597.3 259.0 L 591.7 261.2 L 589.1 266.9 L 577.8 270.9 L 567.7 269.7 L 545.8 262.7 L 538.0 264.3 L 530.5 261.3 L 528.4 262.6 L 512.1 261.9 L 492.3 257.5 L 485.8 262.8 L 485.7 267.0 L 481.4 268.0 L 474.7 268.4 L 458.7 266.0 L 432.9 266.2 L 416.4 263.4 L 409.3 259.8 L 394.5 264.6 L 392.3 260.5 L 387.6 261.1 L 354.1 253.8 L 335.7 239.9 L 315.3 238.9 L 309.2 236.2 L 294.3 234.4 L 283.0 229.8 L 278.7 225.9 L 269.9 221.6 L 256.3 221.9 L 251.2 217.4 L 241.1 216.5 L 233.4 208.9 L 228.7 208.6 L 214.0 202.1 L 193.7 201.9 L 185.2 204.9 L 172.1 205.2 L 169.4 212.1 L 163.8 210.8 L 165.8 205.9 L 163.8 210.8 L 173.2 212.7 L 185.7 217.8 L 185.6 220.6 L 194.0 223.0 L 215.3 234.1 L 226.6 246.6 L 248.1 264.8 L 265.1 265.5 L 279.7 271.6 L 286.0 269.9 L 313.5 280.9 L 358.1 327.9 L 394.6 370.6 L 399.6 372.9 L 426.7 374.4 L 434.6 376.9 L 466.2 396.0 L 470.1 400.4 L 474.1 410.2 L 486.4 417.7 L 501.3 419.9 L 520.2 426.6 L 521.6 427.4 L 520.8 428.7 L 526.8 430.9 L 536.6 430.0 L 541.7 425.3 L 554.1 432.5 L 575.0 437.0 L 579.5 436.3 L 582.3 442.5 L 585.4 444.4 L 588.5 442.0 L 589.0 438.8 L 595.0 431.6 L 601.3 427.9 L 606.9 426.2 L 613.2 427.6 L 625.5 423.7 L 636.7 433.5 L 649.1 433.8 L 669.6 445.8 L 677.7 440.0 L 682.9 439.4 L 707.8 420.1 L 710.3 421.7 L 714.6 416.1 L 729.0 414.5 L 731.9 416.2 L 733.8 423.0 L 738.0 428.9 L 740.2 429.3 L 745.1 426.9 L 767.2 471.8 L 768.3 479.3 L 754.4 480.8 L 754.5 482.6" fill="none" stroke="#1f6f5c" stroke-width="2.5" stroke-linecap="round" stroke-linejoin="round"/>
    <path d="M 758.1 487.9 L 450.0 601.4" fill="none" stroke="#1f6f5c" stroke-width="2" stroke-dasharray="5 4" stroke-linecap="round"/>
  </g>
  <g id="layer-labels">
    <text class="dur" data-dur="sannomiya" font-family="DM Mono,monospace" font-size="9" fill="#1f6f5c" x="735.6" y="392.6" paint-order="stroke" stroke="#f4f6f3" stroke-width="3"></text>
    <text class="dur" data-dur="arima" font-family="DM Mono,monospace" font-size="9" fill="#1f6f5c" x="795.2" y="252.7" paint-order="stroke" stroke="#f4f6f3" stroke-width="3"></text>
    <text class="dur" data-dur="himeji" font-family="DM Mono,monospace" font-size="9" fill="#1f6f5c" x="171.9" y="194.6" paint-order="stroke" stroke="#f4f6f3" stroke-width="3"></text>
    <text class="city" font-family="DM Mono,monospace" font-size="10" fill="#6b756f" x="765.7" y="138.3" paint-order="stroke" stroke="#f4f6f3" stroke-width="3">三田</text>
    <circle cx="759.7" cy="135.3" r="1.6" fill="#6b756f"/>
    <text class="city" font-family="DM Mono,monospace" font-size="10" fill="#6b756f" x="333.6" y="320.6" paint-order="stroke" stroke="#f4f6f3" stroke-width="3">加古川</text>
    <circle cx="327.6" cy="317.6" r="1.6" fill="#6b756f"/>
    <text class="city" font-family="DM Mono,monospace" font-size="10" fill="#6b756f" x="896.2" y="346.9" paint-order="stroke" stroke="#f4f6f3" stroke-width="3">西宮</text>
    <circle cx="890.2" cy="343.9" r="1.6" fill="#6b756f"/>
    <text class="city" font-family="DM Mono,monospace" font-size="10" fill="#6b756f" x="504.6" y="469.6" paint-order="stroke" stroke="#f4f6f3" stroke-width="3">明石</text>
    <circle cx="498.6" cy="466.6" r="1.6" fill="#6b756f"/>
    <text class="spotname" font-family="Noto Sans TC,sans-serif" font-size="12" font-weight="600" fill="#3a4540" x="768.1" y="501.9" text-anchor="start" paint-order="stroke" stroke="#f4f6f3" stroke-width="3">神戸空港</text>
    <text class="spotname" font-family="Noto Sans TC,sans-serif" font-size="12" font-weight="600" fill="#3a4540" x="715.6" y="394.6" text-anchor="end" paint-order="stroke" stroke="#f4f6f3" stroke-width="3">三宮・北野</text>
    <text class="spotname" font-family="Noto Sans TC,sans-serif" font-size="12" font-weight="600" fill="#3a4540" x="779.5" y="302.8" text-anchor="start" paint-order="stroke" stroke="#f4f6f3" stroke-width="3">六甲山</text>
    <text class="spotname" font-family="Noto Sans TC,sans-serif" font-size="12" font-weight="600" fill="#3a4540" x="795.2" y="276.7" text-anchor="start" paint-order="stroke" stroke="#f4f6f3" stroke-width="3">有馬温泉</text>
    <text class="spotname" font-family="Noto Sans TC,sans-serif" font-size="12" font-weight="600" fill="#3a4540" x="151.9" y="196.6" text-anchor="end" paint-order="stroke" stroke="#f4f6f3" stroke-width="3">姫路城</text>
    <text class="spotname" font-family="Noto Sans TC,sans-serif" font-size="12" font-weight="600" fill="#3a4540" x="440.0" y="615.4" text-anchor="end" paint-order="stroke" stroke="#f4f6f3" stroke-width="3">淡路島</text>
  </g>
  <g id="layer-spots">
    <g data-spot="airport">
      <circle cx="758.1" cy="487.9" r="6" fill="#ffffff" stroke="#1f6f5c" stroke-width="2"/>
    </g>
    <g data-spot="sannomiya">
      <circle cx="725.6" cy="402.6" r="6" fill="#ffffff" stroke="#1f6f5c" stroke-width="2"/>
    </g>
    <g data-spot="rokko">
      <circle cx="769.5" cy="288.8" r="6" fill="#ffffff" stroke="#1f6f5c" stroke-width="2"/>
    </g>
    <g data-spot="arima">
      <circle cx="785.2" cy="262.7" r="6" fill="#ffffff" stroke="#1f6f5c" stroke-width="2"/>
    </g>
    <g data-spot="himeji">
      <circle cx="161.9" cy="204.6" r="6" fill="#ffffff" stroke="#1f6f5c" stroke-width="2"/>
    </g>
    <g data-spot="awaji">
      <circle cx="450.0" cy="601.4" r="6" fill="#ffffff" stroke="#1f6f5c" stroke-width="2"/>
    </g>
  </g>
  <text x="10" y="852" font-family="monospace" font-size="8" fill="#6b756f" opacity=".7">© OpenStreetMap contributors</text>
</svg>